PathFileType	4	(X/Y/Z)	Patient4_TMGait_0pt8_01_left_16.trc.trc
DataRate	CameraRate	NumFrames	NumMarkers	Units	OrigDataRate	OrigDataStartFrame	OrigNumFrames
88.050314465409	88.050314465409	5	33	mm	88.050314465409	53	       141
Frame#	Time	Sacral			L.Shoulder			Chest			R.Shoulder			Neck			R.ASIS			L.ASIS			R.Thigh.Superior			R.Thigh.Lateral			R.Thigh.Inferior			R.Patella			L.Thigh.Superior			L.Thigh.Lateral			L.Thigh.Inferior			L.Patella			L.Shank.Superior			L.Shank.Lateral			L.Shank.Inferior			R.Shank.Superior			R.Shank.Lateral			R.Shank.Inferior			R.Heel			R.Midfoot.Superior			R.Midfoot.Lateral			R.Toe			L.Heel			L.Midfoot.Lateral			L.Midfoot.Superior			L.Toe			L.Elbow			L.Wrist			R.Elbow			R.Wrist			
		X1	Y1	Z1	X2	Y2	Z2	X3	Y3	Z3	X4	Y4	Z4	X5	Y5	Z5	X6	Y6	Z6	X7	Y7	Z7	X8	Y8	Z8	X9	Y9	Z9	X10	Y10	Z10	X11	Y11	Z11	X12	Y12	Z12	X13	Y13	Z13	X14	Y14	Z14	X15	Y15	Z15	X16	Y16	Z16	X17	Y17	Z17	X18	Y18	Z18	X19	Y19	Z19	X20	Y20	Z20	X21	Y21	Z21	X22	Y22	Z22	X23	Y23	Z23	X24	Y24	Z24	X25	Y25	Z25	X26	Y26	Z26	X27	Y27	Z27	X28	Y28	Z28	X29	Y29	Z29	X30	Y30	Z30	X31	Y31	Z31	X32	Y32	Z32	X33	Y33	Z33	

53	17.710571428571	913.497310067558	1013.150460121060	419.105127547270	1095.308236242771	1439.847035091294	252.070811703057	1190.014046547741	1372.668502450424	418.984571400327	1094.463970303230	1442.481423770625	589.215749448909	1070.828227238357	1501.147326571002	407.690800322117	1132.757953798831	948.975931871268	549.512445257899	1137.995686598139	967.479065126856	275.117517202120	1213.114326477263	775.079336180663	524.811524430788	1166.445069616684	655.223129330361	596.872082970612	1259.545048963626	612.685057089278	523.313043035413	1271.361139895914	496.713936415498	547.077698984406	1180.727611085863	751.996199029453	306.872916917399	1087.916644201681	637.005549243112	250.054565593478	1167.694743352067	558.028841964334	317.917929263367	1165.788623610899	489.798741373787	330.758531001147	1139.075431609550	418.029515199486	323.663930731655	1050.494635179905	303.266426703061	274.067431356824	1096.724652782179	193.717918135756	350.086407809305	1187.202383553877	428.153168246376	549.277285393514	1058.192794810725	404.826368019703	602.501162310849	1033.622471490867	298.145804888839	553.138177382535	830.066268148027	265.321133090909	514.088120689487	984.061369533927	178.899912087633	560.090342800305	873.297418092661	192.275463895769	586.282283437606	1029.252315986241	56.552106483496	582.760067500358	965.669842985457	39.350865568637	392.803123476364	1040.041577841386	36.432658722719	312.576797634357	1123.588322103816	96.768450763731	340.760979781441	1251.823333765639	43.211843135393	312.428306325505	1114.774287410958	1093.063451688687	117.610946148087	1245.661575057055	865.868124956587	122.075963507767	1043.604244421883	1091.305449144887	693.230310241112	1193.108536505918	879.131150782684	683.725288393365	
54	17.721928571429	912.219924042042	1013.686150135309	417.731461440816	1095.877456532464	1440.824987870512	251.775016001247	1189.308546284316	1373.086481987327	419.156727347016	1092.802025583745	1442.596128874291	588.914683299823	1070.333498207297	1501.745970821836	407.336396093634	1131.139773799445	950.259313263045	549.112650414582	1137.925074068456	968.336065350599	274.425658167606	1214.888723371367	780.138721053036	523.663345941881	1172.043060436109	659.357958538480	596.460235327036	1265.750948763116	619.018715511419	522.460285265353	1280.944514060677	503.470709571126	546.394824163406	1177.199461331495	751.014606933747	307.246999435232	1082.960089234007	637.162791154876	249.629316117794	1160.842367871246	557.104433464368	318.118624775219	1157.797426685665	489.126865630990	330.991931341774	1131.155287807518	417.781102274789	323.583432961548	1042.317666895260	303.278152862817	273.825099318620	1087.997868010500	193.653768285749	350.077729752021	1199.014936303055	432.521148234805	548.846669462407	1071.083503069980	404.636312876539	602.288332694924	1050.111078138850	297.108419277705	552.940913937608	847.583813680557	256.754920290032	514.405328294331	1004.897295850700	176.309147001286	560.032386816405	893.799933305878	185.527712818241	586.570852414102	1054.771999675350	56.036851512152	582.684778499088	956.479925317197	39.391900277402	392.755369334463	1030.894570119221	36.441688182769	312.557021468286	1114.485476450546	96.757061680909	340.728854042683	1242.691575638405	43.118385579292	312.412572121826	1125.623233604555	1096.094572015747	114.646529632691	1267.978853391197	875.803013080513	119.950843074573	1035.277945693473	1091.820730401144	690.890788133536	1165.022237924648	866.196575471452	684.513631054392	
55	17.733285714286	910.966287356412	1014.041478608965	416.454356931464	1096.508391904582	1441.700347969501	251.594044328516	1188.656158537716	1373.342360277621	419.413514609749	1091.203632374023	1442.539903514086	588.700457454421	1069.850897803522	1502.190378802583	407.102056447414	1129.534007281586	951.359277653272	548.818528153400	1137.874037487831	969.025827343737	273.836245693019	1216.354170795988	784.883416497676	522.796698002067	1177.094837035345	663.265007108114	596.116869679563	1271.280552179408	625.004268985282	521.675046259742	1289.738740902185	510.115361921600	545.771922413166	1173.570411932730	749.958722191172	307.859105223099	1078.079126882965	637.248089960864	249.218582067494	1153.998935654093	556.154726420153	318.351029358040	1149.834774748613	488.443958742300	331.199756079323	1123.264785928699	417.494575251959	323.501657340418	1034.178086671035	303.257693619848	273.576740663884	1079.258805183490	193.559737073075	350.067331668202	1210.349650614956	436.666330796092	548.524108739687	1083.872086471547	403.638179791240	602.305668776675	1067.004951245780	295.276171437812	552.989686908218	865.995520822559	246.483929082470	515.087090394851	1026.755118474843	172.853321204676	560.355595435578	915.444612222575	177.481569962754	587.293365685140	1081.770528426137	54.993592522390	583.128282308875	947.291189256372	39.426733479148	392.717537535273	1021.746380181573	36.441802996648	312.543467660925	1105.377753693706	96.740287990129	340.705606648362	1233.567278628121	43.021696137180	312.406440870741	1135.920105643617	1099.347171858050	111.918351399700	1289.638337684945	886.759707037696	118.340734336544	1027.118184788585	1092.347169042149	688.652611202381	1136.467723828237	855.541381097654	685.232602301993	
56	17.744642857143	909.741686961638	1014.204410982750	415.281125801144	1097.205906464106	1442.440225146548	251.528607406036	1188.068741682791	1373.416843851930	419.757853946098	1089.680583424828	1442.295743104393	588.577135454139	1069.396823427850	1502.461546820249	406.984000593595	1127.966897515536	952.237178752607	548.619180526028	1137.776729593877	969.509877371991	273.358211203709	1217.519538193163	789.213353964179	522.164361160461	1181.573820984165	666.842745064007	595.822500785991	1276.089790105818	630.499806446165	520.930127114990	1297.666908361174	516.514385902717	545.195341088749	1169.878579532550	748.823339239984	308.617136973829	1073.261957764600	637.259180790008	248.802479436167	1147.194393082762	555.176334468074	318.553202024521	1141.942211123994	487.750398663751	331.333675200972	1115.426004951214	417.162118075903	323.393681408446	1026.085365546229	303.203565924782	273.308705961701	1070.513287280197	193.431847846041	350.042399581575	1221.125992752691	440.507903435457	548.290563097094	1096.544560992319	401.847419840946	602.550489302207	1084.253711236894	292.740636140593	553.275262155659	885.358818618261	234.720672625783	516.148203714869	1049.542252184325	168.711478266722	561.017779067252	938.226972743524	168.377498617483	588.452052348992	1110.073179187486	53.674537363239	584.048198195259	938.108246696203	39.458446865071	392.683674024192	1012.597896597039	36.431147567555	312.532520507499	1096.265828202586	96.715869685613	340.685434007887	1224.450179666095	42.921338073413	312.405692748837	1145.603506431101	1102.726345343936	109.422852747787	1310.524059197518	898.673706547380	117.225945485513	1018.991408357908	1092.912423546216	686.521381346171	1107.810364733605	847.226442913583	685.879117536699	
57	17.756000000000	908.555895212326	1014.174137850354	414.220575995751	1097.967006604241	1443.017687462772	251.578615036329	1187.554620416216	1373.299708077057	420.191021745327	1088.245752534976	1441.859998284143	588.547151121803	1068.986050843490	1502.548304209667	406.977273997484	1126.464787368344	952.866651117442	548.503531436658	1137.578114680775	969.763122179727	272.997491617708	1218.388020594372	793.034491357970	521.710341615237	1185.440814024502	669.995125893991	595.558902544205	1280.130874160945	635.371747383876	520.209013852227	1304.649020537241	522.539591404943	544.653366368180	1166.172556461342	747.606296195279	309.419640423133	1068.491024365169	637.199017378509	248.368384972565	1140.453597795130	554.169882745907	318.673792375149	1134.155058787998	487.047674426235	331.356944995640	1107.654153071323	416.780918477033	323.241119514698	1018.042580067695	303.119208908286	273.011874331400	1061.766815387708	193.270349321460	349.992862312421	1231.264935486897	443.979125020037	548.128454769216	1109.090175937786	399.295016258484	603.015174567083	1101.810811548678	289.611391781434	553.779253487239	905.737980763749	221.694400918261	517.584107784940	1073.176418235746	164.088069368142	561.969020730562	962.148933269690	158.469283849723	590.024796090457	1139.514866066509	52.365289002973	585.377859289083	928.934829566555	39.491152937967	392.647480303190	1003.450101955001	36.408969685541	312.521030274140	1087.151169796676	96.682266997791	340.662317619816	1215.339020709940	42.816694926866	312.406834994500	1154.644234270056	1106.141956531517	107.155540625834	1330.528263080474	911.468044695818	116.584881409688	1010.777595026856	1093.568935411695	684.510418114446	1079.419123607148	841.231669181970	686.449735113320	
